<svg width="26" height="24" viewBox="0 0 26 24" fill="none" xmlns="http://www.w3.org/2000/svg">
<path d="M16.0589 22.75H9.94121C4.40474 22.75 2.03925 20.43 2.03925 15V9C2.03925 3.57 4.40474 1.25 9.94121 1.25H16.0589C21.5953 1.25 23.9608 3.57 23.9608 9V15C23.9608 20.43 21.5953 22.75 16.0589 22.75ZM9.94121 2.75C5.24081 2.75 3.56866 4.39 3.56866 9V15C3.56866 19.61 5.24081 21.25 9.94121 21.25H16.0589C20.7592 21.25 22.4314 19.61 22.4314 15V9C22.4314 4.39 20.7592 2.75 16.0589 2.75H9.94121Z" fill="#9197B3"/>
<path d="M13.0006 13.0797C12.8681 13.0797 12.7355 13.0497 12.6132 12.9797L7.20928 9.9197C6.84222 9.7097 6.71985 9.2497 6.93397 8.8997C7.14809 8.5397 7.61713 8.4197 7.97399 8.6297L12.9904 11.4797L17.9763 8.6497C18.3434 8.4397 18.8124 8.5697 19.0163 8.9197C19.2203 9.2697 19.0979 9.7397 18.741 9.9397L13.3779 12.9797C13.2657 13.0397 13.1332 13.0797 13.0006 13.0797Z" fill="#9197B3"/>
<path d="M13 18.5201C12.582 18.5201 12.2353 18.1801 12.2353 17.7701V12.3301C12.2353 11.9201 12.582 11.5801 13 11.5801C13.418 11.5801 13.7647 11.9201 13.7647 12.3301V17.7701C13.7647 18.1801 13.418 18.5201 13 18.5201Z" fill="#9197B3"/>
<path d="M13.0002 18.7498C12.4089 18.7498 11.8278 18.6198 11.3588 18.3698L8.09596 16.5898C7.11714 16.0598 6.36261 14.7898 6.36261 13.6898V10.2998C6.36261 9.20981 7.12734 7.9398 8.09596 7.3998L11.3588 5.6198C12.2968 5.1098 13.7038 5.1098 14.6418 5.6198L17.9045 7.3998C18.8834 7.9298 19.638 9.19981 19.638 10.2998V13.6898C19.638 14.7798 18.8732 16.0498 17.9045 16.5898L14.6418 18.3698C14.1728 18.6298 13.5916 18.7498 13.0002 18.7498ZM13.0002 6.7498C12.6638 6.7498 12.3375 6.8098 12.103 6.9398L8.84029 8.7198C8.34068 8.9898 7.89202 9.7498 7.89202 10.2998V13.6898C7.89202 14.2498 8.34068 14.9998 8.84029 15.2698L12.103 17.0498C12.572 17.3098 13.4285 17.3098 13.8975 17.0498L17.1602 15.2698C17.6598 14.9998 18.1086 14.2398 18.1086 13.6898V10.2998C18.1086 9.73981 17.6598 8.9898 17.1602 8.7198L13.8975 6.9398C13.663 6.8098 13.3367 6.7498 13.0002 6.7498Z" fill="#9197B3"/>
</svg>
