<svg width="26" height="24" viewBox="0 0 26 24" fill="none" xmlns="http://www.w3.org/2000/svg">
<path d="M13 22.7503C12.3577 22.7503 11.7561 22.5104 11.3075 22.0604L9.75769 20.5404C9.63533 20.4204 9.30905 20.2904 9.14591 20.2904H6.94356C5.61807 20.2904 4.54747 19.2403 4.54747 17.9403V15.7804C4.54747 15.6204 4.41492 15.3004 4.29257 15.1804L2.74278 13.6604C2.29415 13.2204 2.03925 12.6303 2.03925 12.0003C2.03925 11.3703 2.28395 10.7803 2.74278 10.3403L4.29257 8.82028C4.41492 8.70028 4.54747 8.3803 4.54747 8.2203V6.06039C4.54747 4.76039 5.61807 3.71029 6.94356 3.71029H9.14591C9.30905 3.71029 9.63533 3.58029 9.75769 3.46029L11.3075 1.94027C12.2047 1.06027 13.7953 1.06027 14.6926 1.94027L16.2424 3.46029C16.3647 3.58029 16.691 3.71029 16.8541 3.71029H19.0565C20.382 3.71029 21.4526 4.76039 21.4526 6.06039V8.2203C21.4526 8.3803 21.5851 8.70028 21.7075 8.82028L23.2573 10.3403C23.7059 10.7803 23.9608 11.3703 23.9608 12.0003C23.9608 12.6303 23.7161 13.2204 23.2573 13.6604L21.7075 15.1804C21.5851 15.3004 21.4526 15.6204 21.4526 15.7804V17.9403C21.4526 19.2403 20.382 20.2904 19.0565 20.2904H16.8541C16.691 20.2904 16.3647 20.4204 16.2424 20.5404L14.6926 22.0604C14.244 22.5104 13.6424 22.7503 13 22.7503ZM5.37335 14.1203C5.7812 14.5203 6.07688 15.2204 6.07688 15.7804V17.9403C6.07688 18.4103 6.46434 18.7904 6.94356 18.7904H9.14591C9.71689 18.7904 10.4306 19.0803 10.8385 19.4803L12.3883 21.0003C12.7145 21.3203 13.2855 21.3203 13.6118 21.0003L15.1616 19.4803C15.5694 19.0803 16.2832 18.7904 16.8541 18.7904H19.0565C19.5357 18.7904 19.9232 18.4103 19.9232 17.9403V15.7804C19.9232 15.2204 20.2189 14.5203 20.6267 14.1203L22.1765 12.6003C22.3396 12.4403 22.4314 12.2303 22.4314 12.0003C22.4314 11.7703 22.3396 11.5604 22.1765 11.4004L20.6267 9.88034C20.2189 9.48034 19.9232 8.7803 19.9232 8.2203V6.06039C19.9232 5.59039 19.5357 5.21029 19.0565 5.21029H16.8541C16.2832 5.21029 15.5694 4.92035 15.1616 4.52035L13.6118 3.00033C13.2855 2.68033 12.7145 2.68033 12.3883 3.00033L10.8385 4.52035C10.4306 4.92035 9.71689 5.21029 9.14591 5.21029H6.94356C6.46434 5.21029 6.07688 5.59039 6.07688 6.06039V8.2203C6.07688 8.7803 5.7812 9.48034 5.37335 9.88034L3.82356 11.4004C3.66042 11.5604 3.56866 11.7703 3.56866 12.0003C3.56866 12.2303 3.66042 12.4403 3.82356 12.6003L5.37335 14.1203Z" fill="#9197B3"/>
<path d="M16.059 16C15.4881 16 15.0292 15.55 15.0292 15C15.0292 14.45 15.4881 14 16.0488 14C16.6096 14 17.0685 14.45 17.0685 15C17.0685 15.55 16.6198 16 16.059 16Z" fill="#9197B3"/>
<path d="M9.95138 10C9.3804 10 8.92157 9.55 8.92157 9C8.92157 8.45 9.38039 8 9.94118 8C10.502 8 10.9608 8.45 10.9608 9C10.9608 9.55 10.5122 10 9.95138 10Z" fill="#9197B3"/>
<path d="M9.94062 15.7495C9.7469 15.7495 9.55317 15.6795 9.40023 15.5295C9.10455 15.2395 9.10455 14.7595 9.40023 14.4695L15.5179 8.46945C15.8136 8.17945 16.303 8.17945 16.5987 8.46945C16.8944 8.75945 16.8944 9.23951 16.5987 9.52951L10.481 15.5295C10.3281 15.6795 10.1343 15.7495 9.94062 15.7495Z" fill="#9197B3"/>
</svg>
