<svg width="26" height="24" viewBox="0 0 26 24" fill="none" xmlns="http://www.w3.org/2000/svg">
<path d="M9.94121 22H16.0589C21.1569 22 23.1961 20 23.1961 15V9C23.1961 4 21.1569 2 16.0589 2H9.94121C4.84317 2 2.80396 4 2.80396 9V15C2.80396 20 4.84317 22 9.94121 22Z" stroke="#9197B3" stroke-width="1.5" stroke-linecap="round" stroke-linejoin="round"/>
<path d="M17.3639 13.61C16.2118 14.74 14.56 15.09 13.102 14.64L10.4612 17.22C10.2777 17.41 9.90041 17.53 9.62511 17.49L8.40158 17.33C7.99374 17.28 7.62668 16.9 7.56551 16.51L7.40237 15.31C7.36158 15.05 7.49413 14.68 7.67766 14.49L10.3083 11.91C9.85962 10.48 10.2063 8.86001 11.3584 7.73001C13.0102 6.11001 15.702 6.11001 17.3639 7.73001C19.0157 9.34001 19.0157 11.98 17.3639 13.61Z" stroke="#9197B3" stroke-width="1.5" stroke-miterlimit="10" stroke-linecap="round" stroke-linejoin="round"/>
<path d="M11.4196 16.28L10.5529 15.42" stroke="#9197B3" stroke-width="1.5" stroke-miterlimit="10" stroke-linecap="round" stroke-linejoin="round"/>
<path d="M14.4219 10.7H14.4313" stroke="#9197B3" stroke-width="2" stroke-linecap="round" stroke-linejoin="round"/>
</svg>
