<svg width="200" height="39" viewBox="0 0 200 39" fill="none" xmlns="http://www.w3.org/2000/svg">
<path d="M54.5694 10.852C56.4761 10.852 58.1487 11.2247 59.5874 11.97C61.0434 12.7153 62.1614 13.7813 62.9414 15.168C63.7387 16.5373 64.1374 18.132 64.1374 19.952C64.1374 21.772 63.7387 23.3667 62.9414 24.736C62.1614 26.088 61.0434 27.1367 59.5874 27.882C58.1487 28.6273 56.4761 29 54.5694 29H48.2254V10.852H54.5694ZM54.4394 25.906C56.3461 25.906 57.8194 25.386 58.8594 24.346C59.8994 23.306 60.4194 21.8413 60.4194 19.952C60.4194 18.0627 59.8994 16.5893 58.8594 15.532C57.8194 14.4573 56.3461 13.92 54.4394 13.92H51.8654V25.906H54.4394ZM66.1861 21.746C66.1861 20.29 66.4721 18.9987 67.0441 17.872C67.6334 16.7453 68.4221 15.8787 69.4101 15.272C70.4154 14.6653 71.5334 14.362 72.7641 14.362C73.8388 14.362 74.7748 14.5787 75.5721 15.012C76.3868 15.4453 77.0368 15.9913 77.5221 16.65V14.596H81.1881V29H77.5221V26.894C77.0541 27.57 76.4041 28.1333 75.5721 28.584C74.7574 29.0173 73.8128 29.234 72.7381 29.234C71.5248 29.234 70.4154 28.922 69.4101 28.298C68.4221 27.674 67.6334 26.7987 67.0441 25.672C66.4721 24.528 66.1861 23.2193 66.1861 21.746ZM77.5221 21.798C77.5221 20.914 77.3488 20.16 77.0021 19.536C76.6554 18.8947 76.1874 18.4093 75.5981 18.08C75.0088 17.7333 74.3761 17.56 73.7001 17.56C73.0241 17.56 72.4001 17.7247 71.8281 18.054C71.2561 18.3833 70.7881 18.8687 70.4241 19.51C70.0774 20.134 69.9041 20.8793 69.9041 21.746C69.9041 22.6127 70.0774 23.3753 70.4241 24.034C70.7881 24.6753 71.2561 25.1693 71.8281 25.516C72.4174 25.8627 73.0414 26.036 73.7001 26.036C74.3761 26.036 75.0088 25.8713 75.5981 25.542C76.1874 25.1953 76.6554 24.71 77.0021 24.086C77.3488 23.4447 77.5221 22.682 77.5221 21.798ZM90.5152 29.234C89.3365 29.234 88.2792 29.026 87.3432 28.61C86.4072 28.1767 85.6619 27.596 85.1072 26.868C84.5699 26.14 84.2752 25.334 84.2232 24.45H87.8892C87.9585 25.0047 88.2272 25.464 88.6952 25.828C89.1805 26.192 89.7785 26.374 90.4892 26.374C91.1825 26.374 91.7199 26.2353 92.1012 25.958C92.4999 25.6807 92.6992 25.3253 92.6992 24.892C92.6992 24.424 92.4565 24.0773 91.9712 23.852C91.5032 23.6093 90.7492 23.3493 89.7092 23.072C88.6345 22.812 87.7505 22.5433 87.0572 22.266C86.3812 21.9887 85.7919 21.564 85.2892 20.992C84.8039 20.42 84.5612 19.6487 84.5612 18.678C84.5612 17.8807 84.7865 17.1527 85.2372 16.494C85.7052 15.8353 86.3639 15.3153 87.2132 14.934C88.0799 14.5527 89.0939 14.362 90.2552 14.362C91.9712 14.362 93.3405 14.7953 94.3632 15.662C95.3859 16.5113 95.9492 17.664 96.0532 19.12H92.5692C92.5172 18.548 92.2745 18.0973 91.8412 17.768C91.4252 17.4213 90.8619 17.248 90.1512 17.248C89.4925 17.248 88.9812 17.3693 88.6172 17.612C88.2705 17.8547 88.0972 18.1927 88.0972 18.626C88.0972 19.1113 88.3399 19.484 88.8252 19.744C89.3105 19.9867 90.0645 20.238 91.0872 20.498C92.1272 20.758 92.9852 21.0267 93.6612 21.304C94.3372 21.5813 94.9179 22.0147 95.4032 22.604C95.9059 23.176 96.1659 23.9387 96.1832 24.892C96.1832 25.724 95.9492 26.4693 95.4812 27.128C95.0305 27.7867 94.3719 28.3067 93.5052 28.688C92.6559 29.052 91.6592 29.234 90.5152 29.234ZM107.543 14.388C108.635 14.388 109.606 14.6307 110.455 15.116C111.305 15.584 111.963 16.286 112.431 17.222C112.917 18.1407 113.159 19.25 113.159 20.55V29H109.519V21.044C109.519 19.9 109.233 19.0247 108.661 18.418C108.089 17.794 107.309 17.482 106.321 17.482C105.316 17.482 104.519 17.794 103.929 18.418C103.357 19.0247 103.071 19.9 103.071 21.044V29H99.4312V9.76H103.071V16.39C103.539 15.766 104.163 15.2807 104.943 14.934C105.723 14.57 106.59 14.388 107.543 14.388ZM120.521 16.702C120.989 16.0087 121.63 15.4453 122.445 15.012C123.277 14.5787 124.221 14.362 125.279 14.362C126.509 14.362 127.619 14.6653 128.607 15.272C129.612 15.8787 130.401 16.7453 130.973 17.872C131.562 18.9813 131.857 20.2727 131.857 21.746C131.857 23.2193 131.562 24.528 130.973 25.672C130.401 26.7987 129.612 27.674 128.607 28.298C127.619 28.922 126.509 29.234 125.279 29.234C124.204 29.234 123.259 29.026 122.445 28.61C121.647 28.1767 121.006 27.622 120.521 26.946V29H116.881V9.76H120.521V16.702ZM128.139 21.746C128.139 20.8793 127.957 20.134 127.593 19.51C127.246 18.8687 126.778 18.3833 126.189 18.054C125.617 17.7247 124.993 17.56 124.317 17.56C123.658 17.56 123.034 17.7333 122.445 18.08C121.873 18.4093 121.405 18.8947 121.041 19.536C120.694 20.1773 120.521 20.9313 120.521 21.798C120.521 22.6647 120.694 23.4187 121.041 24.06C121.405 24.7013 121.873 25.1953 122.445 25.542C123.034 25.8713 123.658 26.036 124.317 26.036C124.993 26.036 125.617 25.8627 126.189 25.516C126.778 25.1693 127.246 24.6753 127.593 24.034C127.957 23.3927 128.139 22.63 128.139 21.746ZM141.158 29.234C139.771 29.234 138.523 28.9307 137.414 28.324C136.304 27.7 135.429 26.8247 134.788 25.698C134.164 24.5713 133.852 23.2713 133.852 21.798C133.852 20.3247 134.172 19.0247 134.814 17.898C135.472 16.7713 136.365 15.9047 137.492 15.298C138.618 14.674 139.875 14.362 141.262 14.362C142.648 14.362 143.905 14.674 145.032 15.298C146.158 15.9047 147.042 16.7713 147.684 17.898C148.342 19.0247 148.672 20.3247 148.672 21.798C148.672 23.2713 148.334 24.5713 147.658 25.698C146.999 26.8247 146.098 27.7 144.954 28.324C143.827 28.9307 142.562 29.234 141.158 29.234ZM141.158 26.062C141.816 26.062 142.432 25.906 143.004 25.594C143.593 25.2647 144.061 24.7793 144.408 24.138C144.754 23.4967 144.928 22.7167 144.928 21.798C144.928 20.4287 144.564 19.38 143.836 18.652C143.125 17.9067 142.25 17.534 141.21 17.534C140.17 17.534 139.294 17.9067 138.584 18.652C137.89 19.38 137.544 20.4287 137.544 21.798C137.544 23.1673 137.882 24.2247 138.558 24.97C139.251 25.698 140.118 26.062 141.158 26.062ZM150.666 21.746C150.666 20.29 150.952 18.9987 151.524 17.872C152.113 16.7453 152.902 15.8787 153.89 15.272C154.895 14.6653 156.013 14.362 157.244 14.362C158.318 14.362 159.254 14.5787 160.052 15.012C160.866 15.4453 161.516 15.9913 162.002 16.65V14.596H165.668V29H162.002V26.894C161.534 27.57 160.884 28.1333 160.052 28.584C159.237 29.0173 158.292 29.234 157.218 29.234C156.004 29.234 154.895 28.922 153.89 28.298C152.902 27.674 152.113 26.7987 151.524 25.672C150.952 24.528 150.666 23.2193 150.666 21.746ZM162.002 21.798C162.002 20.914 161.828 20.16 161.482 19.536C161.135 18.8947 160.667 18.4093 160.078 18.08C159.488 17.7333 158.856 17.56 158.18 17.56C157.504 17.56 156.88 17.7247 156.308 18.054C155.736 18.3833 155.268 18.8687 154.904 19.51C154.557 20.134 154.384 20.8793 154.384 21.746C154.384 22.6127 154.557 23.3753 154.904 24.034C155.268 24.6753 155.736 25.1693 156.308 25.516C156.897 25.8627 157.521 26.036 158.18 26.036C158.856 26.036 159.488 25.8713 160.078 25.542C160.667 25.1953 161.135 24.71 161.482 24.086C161.828 23.4447 162.002 22.682 162.002 21.798ZM173.123 16.832C173.591 16.0693 174.198 15.4713 174.943 15.038C175.706 14.6047 176.572 14.388 177.543 14.388V18.21H176.581C175.437 18.21 174.57 18.4787 173.981 19.016C173.409 19.5533 173.123 20.4893 173.123 21.824V29H169.483V14.596H173.123V16.832ZM179.319 21.746C179.319 20.29 179.605 18.9987 180.177 17.872C180.766 16.7453 181.563 15.8787 182.569 15.272C183.574 14.6653 184.692 14.362 185.923 14.362C186.859 14.362 187.751 14.57 188.601 14.986C189.45 15.3847 190.126 15.922 190.629 16.598V9.76H194.321V29H190.629V26.868C190.178 27.5787 189.545 28.1507 188.731 28.584C187.916 29.0173 186.971 29.234 185.897 29.234C184.683 29.234 183.574 28.922 182.569 28.298C181.563 27.674 180.766 26.7987 180.177 25.672C179.605 24.528 179.319 23.2193 179.319 21.746ZM190.655 21.798C190.655 20.914 190.481 20.16 190.135 19.536C189.788 18.8947 189.32 18.4093 188.731 18.08C188.141 17.7333 187.509 17.56 186.833 17.56C186.157 17.56 185.533 17.7247 184.961 18.054C184.389 18.3833 183.921 18.8687 183.557 19.51C183.21 20.134 183.037 20.8793 183.037 21.746C183.037 22.6127 183.21 23.3753 183.557 24.034C183.921 24.6753 184.389 25.1693 184.961 25.516C185.55 25.8627 186.174 26.036 186.833 26.036C187.509 26.036 188.141 25.8713 188.731 25.542C189.32 25.1953 189.788 24.71 190.135 24.086C190.481 23.4447 190.655 22.682 190.655 21.798Z" fill="black"/>
<path d="M19.4121 35.8876C18.3589 35.8876 17.29 35.6564 16.4569 35.1784L7.81155 30.2914C4.2905 27.9634 4.07043 27.6089 4.07043 23.9551V15.0443C4.07043 11.3905 4.27478 11.0359 7.73295 8.73887L16.4412 3.80553C18.0917 2.86512 20.6853 2.86512 22.3358 3.80553L31.0127 8.70803C34.5337 11.0359 34.7538 11.3905 34.7538 15.0443V23.9397C34.7538 27.5934 34.5494 27.948 31.0913 30.2451L22.383 35.1784C21.5341 35.6564 20.4653 35.8876 19.4121 35.8876ZM19.4121 5.42428C18.7519 5.42428 18.1074 5.54762 17.6516 5.8097L9.00619 10.7122C6.444 12.408 6.444 12.408 6.444 15.0443V23.9397C6.444 26.5759 6.444 26.5759 9.06906 28.318L17.6516 33.1743C18.579 33.6984 20.2609 33.6984 21.1883 33.1743L29.8338 28.2718C32.3802 26.5759 32.3802 26.5759 32.3802 23.9397V15.0443C32.3802 12.408 32.3802 12.408 29.7552 10.6659L21.1726 5.8097C20.7168 5.54762 20.0723 5.42428 19.4121 5.42428Z" fill="black"/>
<path d="M19.4118 25.2812C16.1579 25.2812 13.5172 22.6912 13.5172 19.5C13.5172 16.3088 16.1579 13.7188 19.4118 13.7188C22.6656 13.7188 25.3064 16.3088 25.3064 19.5C25.3064 22.6912 22.6656 25.2812 19.4118 25.2812ZM19.4118 16.0312C17.4626 16.0312 15.875 17.5883 15.875 19.5C15.875 21.4117 17.4626 22.9687 19.4118 22.9687C21.3609 22.9687 22.9485 21.4117 22.9485 19.5C22.9485 17.5883 21.3609 16.0312 19.4118 16.0312Z" fill="black"/>
</svg>
