<svg width="26" height="24" viewBox="0 0 26 24" fill="none" xmlns="http://www.w3.org/2000/svg">
<path d="M8.9216 22.3199C8.63611 22.3199 8.3404 22.2499 8.0753 22.1099C7.49413 21.8099 7.13729 21.2099 7.13729 20.5699V19.15C4.05807 18.84 2.03925 16.6199 2.03925 13.4399V7.43994C2.03925 3.99994 4.39454 1.68994 7.90199 1.68994H18.0981C21.6055 1.68994 23.9608 3.99994 23.9608 7.43994V13.4399C23.9608 16.8799 21.6055 19.1899 18.0981 19.1899H14.2541L9.91059 22.03C9.6149 22.22 9.26827 22.3199 8.9216 22.3199ZM7.90199 3.17993C5.2714 3.17993 3.56866 4.84993 3.56866 7.42993V13.43C3.56866 16.01 5.2714 17.68 7.90199 17.68C8.32003 17.68 8.6667 18.02 8.6667 18.43V20.56C8.6667 20.69 8.74827 20.75 8.79925 20.78C8.85024 20.81 8.9522 20.84 9.06435 20.77L13.6016 17.81C13.724 17.73 13.8769 17.68 14.0298 17.68H18.1083C20.7389 17.68 22.4416 16.01 22.4416 13.43V7.42993C22.4416 4.84993 20.7389 3.17993 18.1083 3.17993H7.90199Z" fill="#9197B3"/>
<path d="M12.9998 12.1099C12.5818 12.1099 12.2351 11.7699 12.2351 11.3599V11.1499C12.2351 9.9899 13.1018 9.41989 13.4281 9.19989C13.8053 8.94989 13.9277 8.7799 13.9277 8.5199C13.9277 8.0199 13.5096 7.60986 12.9998 7.60986C12.49 7.60986 12.072 8.0199 12.072 8.5199C12.072 8.9299 11.7253 9.2699 11.3073 9.2699C10.8893 9.2699 10.5426 8.9299 10.5426 8.5199C10.5426 7.1899 11.6437 6.10986 12.9998 6.10986C14.3559 6.10986 15.4571 7.1899 15.4571 8.5199C15.4571 9.6599 14.6006 10.2299 14.2845 10.4399C13.8869 10.6999 13.7645 10.8699 13.7645 11.1499V11.3599C13.7645 11.7799 13.4179 12.1099 12.9998 12.1099Z" fill="#9197B3"/>
<path d="M13 14.6001C12.5718 14.6001 12.2353 14.2601 12.2353 13.8501C12.2353 13.4401 12.582 13.1001 13 13.1001C13.418 13.1001 13.7647 13.4401 13.7647 13.8501C13.7647 14.2601 13.4282 14.6001 13 14.6001Z" fill="#9197B3"/>
</svg>
