<svg width="26" height="24" viewBox="0 0 26 24" fill="none" xmlns="http://www.w3.org/2000/svg">
<path d="M16.0594 22.7498H9.9418C8.59592 22.7498 7.47435 22.6198 6.52611 22.3398C6.17945 22.2398 5.95513 21.9098 5.97553 21.5598C6.23043 18.5698 9.31984 16.2197 13.0006 16.2197C16.6814 16.2197 19.7606 18.5598 20.0257 21.5598C20.0563 21.9198 19.832 22.2398 19.4751 22.3398C18.5269 22.6198 17.4053 22.7498 16.0594 22.7498ZM7.6171 21.0598C8.29004 21.1898 9.05474 21.2498 9.9418 21.2498H16.0594C16.9465 21.2498 17.7112 21.1898 18.3841 21.0598C17.8437 19.1398 15.6108 17.7197 13.0006 17.7197C10.3904 17.7197 8.15749 19.1398 7.6171 21.0598Z" fill="white"/>
<path d="M16.0589 2H9.94121C4.84317 2 2.80396 4 2.80396 9V15C2.80396 18.78 3.96631 20.85 6.73964 21.62C6.96395 19.02 9.68631 16.97 13 16.97C16.3138 16.97 19.0361 19.02 19.2604 21.62C22.0338 20.85 23.1961 18.78 23.1961 15V9C23.1961 4 21.1569 2 16.0589 2ZM13 14.17C10.9812 14.17 9.34984 12.56 9.34984 10.58C9.34984 8.60002 10.9812 7 13 7C15.0189 7 16.6502 8.60002 16.6502 10.58C16.6502 12.56 15.0189 14.17 13 14.17Z" stroke="white" stroke-width="1.5" stroke-linecap="round" stroke-linejoin="round"/>
<path d="M12.9999 14.92C10.5631 14.92 8.58502 12.97 8.58502 10.58C8.58502 8.19002 10.5631 6.25 12.9999 6.25C15.4368 6.25 17.4148 8.19002 17.4148 10.58C17.4148 12.97 15.4368 14.92 12.9999 14.92ZM12.9999 7.75C11.4093 7.75 10.1144 9.02002 10.1144 10.58C10.1144 12.15 11.4093 13.42 12.9999 13.42C14.5905 13.42 15.8854 12.15 15.8854 10.58C15.8854 9.02002 14.5905 7.75 12.9999 7.75Z" fill="white"/>
</svg>
