<svg width="18" height="9" viewBox="0 0 18 9" fill="none" xmlns="http://www.w3.org/2000/svg">
<path d="M3.33099 6.98L4.89099 2.49H6.10099L4.00099 8H2.64099L0.550989 2.49H1.77099L3.33099 6.98ZM7.32271 8.07C7.11604 8.07 6.94271 8 6.80271 7.86C6.66271 7.72 6.59271 7.54667 6.59271 7.34C6.59271 7.13333 6.66271 6.96 6.80271 6.82C6.94271 6.68 7.11604 6.61 7.32271 6.61C7.52271 6.61 7.69271 6.68 7.83271 6.82C7.97271 6.96 8.04271 7.13333 8.04271 7.34C8.04271 7.54667 7.97271 7.72 7.83271 7.86C7.69271 8 7.52271 8.07 7.32271 8.07ZM9.02482 4.26C9.02482 3.10667 9.21815 2.20667 9.60482 1.56C9.99815 0.906666 10.6715 0.58 11.6248 0.58C12.5782 0.58 13.2482 0.906666 13.6348 1.56C14.0282 2.20667 14.2248 3.10667 14.2248 4.26C14.2248 5.42667 14.0282 6.34 13.6348 7C13.2482 7.65333 12.5782 7.98 11.6248 7.98C10.6715 7.98 9.99815 7.65333 9.60482 7C9.21815 6.34 9.02482 5.42667 9.02482 4.26ZM13.1048 4.26C13.1048 3.72 13.0682 3.26333 12.9948 2.89C12.9282 2.51667 12.7882 2.21333 12.5748 1.98C12.3615 1.74 12.0448 1.62 11.6248 1.62C11.2048 1.62 10.8882 1.74 10.6748 1.98C10.4615 2.21333 10.3182 2.51667 10.2448 2.89C10.1782 3.26333 10.1448 3.72 10.1448 4.26C10.1448 4.82 10.1782 5.29 10.2448 5.67C10.3115 6.05 10.4515 6.35667 10.6648 6.59C10.8848 6.82333 11.2048 6.94 11.6248 6.94C12.0448 6.94 12.3615 6.82333 12.5748 6.59C12.7948 6.35667 12.9382 6.05 13.0048 5.67C13.0715 5.29 13.1048 4.82 13.1048 4.26ZM15.1811 1.75V0.71H17.2611V8H16.1111V1.75H15.1811Z" fill="#838383"/>
</svg>
