<svg width="26" height="24" viewBox="0 0 26 24" fill="none" xmlns="http://www.w3.org/2000/svg">
<path d="M11.7271 16.8604V18.8904C11.7271 20.6104 10.0957 22.0004 8.08711 22.0004C6.07848 22.0004 4.43689 20.6104 4.43689 18.8904V16.8604C4.43689 18.5804 6.06828 19.8004 8.08711 19.8004C10.0957 19.8004 11.7271 18.5704 11.7271 16.8604Z" stroke="#9197B3" stroke-width="1.5" stroke-linecap="round" stroke-linejoin="round"/>
<path d="M11.7256 14.11C11.7256 14.61 11.5828 15.07 11.3381 15.47C10.7365 16.44 9.50277 17.05 8.07532 17.05C6.64787 17.05 5.41413 16.43 4.81256 15.47C4.56785 15.07 4.42517 14.61 4.42517 14.11C4.42517 13.25 4.83299 12.48 5.48554 11.92C6.14829 11.35 7.0557 11.01 8.06511 11.01C9.07452 11.01 9.982 11.36 10.6447 11.92C11.3177 12.47 11.7256 13.25 11.7256 14.11Z" stroke="#9197B3" stroke-width="1.5" stroke-linecap="round" stroke-linejoin="round"/>
<path d="M11.7271 14.11V16.86C11.7271 18.58 10.0957 19.8 8.08711 19.8C6.07848 19.8 4.43689 18.57 4.43689 16.86V14.11C4.43689 12.39 6.06828 11 8.08711 11C9.09652 11 10.004 11.35 10.6667 11.91C11.3193 12.47 11.7271 13.25 11.7271 14.11Z" stroke="#9197B3" stroke-width="1.5" stroke-linecap="round" stroke-linejoin="round"/>
<path d="M23.1961 10.9699V13.03C23.1961 13.58 22.7474 14.0299 22.1765 14.0499H20.1779C19.0768 14.0499 18.0674 13.2599 17.9757 12.1799C17.9145 11.5499 18.1591 10.9599 18.5873 10.5499C18.9646 10.1699 19.4847 9.94995 20.0557 9.94995H22.1765C22.7474 9.96995 23.1961 10.4199 23.1961 10.9699Z" stroke="#9197B3" stroke-width="1.5" stroke-linecap="round" stroke-linejoin="round"/>
<path d="M2.80396 10.5V8.5C2.80396 5.78 4.47611 3.88 7.07611 3.56C7.34121 3.52 7.6165 3.5 7.90199 3.5H17.0785C17.3436 3.5 17.5985 3.50999 17.8432 3.54999C20.4738 3.84999 22.1765 5.76 22.1765 8.5V9.95001H20.0557C19.4847 9.95001 18.9647 10.17 18.5875 10.55C18.1592 10.96 17.9145 11.55 17.9757 12.18C18.0675 13.26 19.0769 14.05 20.1781 14.05H22.1765V15.5C22.1765 18.5 20.1373 20.5 17.0785 20.5H14.5294" stroke="#9197B3" stroke-width="1.5" stroke-linecap="round" stroke-linejoin="round"/>
</svg>
